<?xml version="1.0" encoding="UTF-8" standalone="no"?>
<!-- Generator: Adobe Illustrator 18.0.0, SVG Export Plug-In . SVG Version: 6.00 Build 0)  -->

<svg
   xmlns:dc="http://purl.org/dc/elements/1.1/"
   xmlns:cc="http://creativecommons.org/ns#"
   xmlns:rdf="http://www.w3.org/1999/02/22-rdf-syntax-ns#"
   xmlns:svg="http://www.w3.org/2000/svg"
   xmlns="http://www.w3.org/2000/svg"
   xmlns:sodipodi="http://sodipodi.sourceforge.net/DTD/sodipodi-0.dtd"
   xmlns:inkscape="http://www.inkscape.org/namespaces/inkscape"
   version="1.1"
   id="GraphQL_Logo"
   x="0px"
   y="0px"
   viewBox="0 0 400 400"
   enable-background="new 0 0 400 400"
   xml:space="preserve"
   inkscape:version="0.91 r13725"
   sodipodi:docname="plotly.svg"><metadata
     id="metadata75"><rdf:RDF><cc:Work
         rdf:about=""><dc:format>image/svg+xml</dc:format><dc:type
           rdf:resource="http://purl.org/dc/dcmitype/StillImage" /><dc:title></dc:title></cc:Work></rdf:RDF></metadata><defs
     id="defs73" /><sodipodi:namedview
     pagecolor="#ffffff"
     bordercolor="#666666"
     borderopacity="1"
     objecttolerance="10"
     gridtolerance="10"
     guidetolerance="10"
     inkscape:pageopacity="0"
     inkscape:pageshadow="2"
     inkscape:window-width="1536"
     inkscape:window-height="801"
     id="namedview71"
     showgrid="false"
     inkscape:zoom="0.834386"
     inkscape:cx="70.985828"
     inkscape:cy="159.83315"
     inkscape:window-x="-8"
     inkscape:window-y="1042"
     inkscape:window-maximized="1"
     inkscape:current-layer="GraphQL_Logo" /><circle
     style="opacity:1;fill:#1f77b4;fill-opacity:0.94117647;stroke:none;stroke-width:1.00157475;stroke-miterlimit:4;stroke-dasharray:none;stroke-dashoffset:0;stroke-opacity:1"
     id="path4271"
     cx="199.34566"
     cy="200.45207"
     r="198.34944" /><g
     style="fill:#000000"
     id="g821"
     transform="matrix(6.5905124,0,0,6.5905124,8.1831356,-8.7660179)" /><g
     style="fill:#000000"
     id="g823"
     transform="matrix(6.5905124,0,0,6.5905124,8.1831356,-8.7660179)" /><g
     style="fill:#000000"
     id="g825"
     transform="matrix(6.5905124,0,0,6.5905124,8.1831356,-8.7660179)" /><g
     style="fill:#000000"
     id="g827"
     transform="matrix(6.5905124,0,0,6.5905124,8.1831356,-8.7660179)" /><g
     style="fill:#000000"
     id="g829"
     transform="matrix(6.5905124,0,0,6.5905124,8.1831356,-8.7660179)" /><g
     style="fill:#000000"
     id="g831"
     transform="matrix(6.5905124,0,0,6.5905124,8.1831356,-8.7660179)" /><g
     style="fill:#000000"
     id="g833"
     transform="matrix(6.5905124,0,0,6.5905124,8.1831356,-8.7660179)" /><g
     style="fill:#000000"
     id="g835"
     transform="matrix(6.5905124,0,0,6.5905124,8.1831356,-8.7660179)" /><g
     style="fill:#000000"
     id="g837"
     transform="matrix(6.5905124,0,0,6.5905124,8.1831356,-8.7660179)" /><g
     style="fill:#000000"
     id="g839"
     transform="matrix(6.5905124,0,0,6.5905124,8.1831356,-8.7660179)" /><g
     style="fill:#000000"
     id="g841"
     transform="matrix(6.5905124,0,0,6.5905124,8.1831356,-8.7660179)" /><g
     style="fill:#000000"
     id="g843"
     transform="matrix(6.5905124,0,0,6.5905124,8.1831356,-8.7660179)" /><g
     style="fill:#000000"
     id="g845"
     transform="matrix(6.5905124,0,0,6.5905124,8.1831356,-8.7660179)" /><g
     style="fill:#000000"
     id="g847"
     transform="matrix(6.5905124,0,0,6.5905124,8.1831356,-8.7660179)" /><g
     style="fill:#000000"
     id="g849"
     transform="matrix(6.5905124,0,0,6.5905124,8.1831356,-8.7660179)" /><text
     xml:space="preserve"
     style="font-style:normal;font-variant:normal;font-weight:normal;font-stretch:normal;font-size:32px;line-height:125%;font-family:sans-serif;-inkscape-font-specification:'sans-serif, Normal';text-align:center;letter-spacing:0px;word-spacing:0px;writing-mode:lr-tb;text-anchor:middle;fill:#000000;fill-opacity:1;stroke:none;stroke-width:1px;stroke-linecap:butt;stroke-linejoin:miter;stroke-opacity:1"
     x="270.85785"
     y="219.02859"
     id="text4267"
     sodipodi:linespacing="125%"><tspan
       sodipodi:role="line"
       id="tspan4269"
       x="276.48285"
       y="219.02859" /></text>
<path
     d="m 241.37903,161.57855 c 0,8.91248 -7.22845,16.14092 -16.14093,16.14092 -8.91247,0 -16.14092,-7.22844 -16.14092,-16.14092 0,-8.91248 7.22845,-16.14092 16.14092,-16.14092 8.91248,0 16.14093,7.22844 16.14093,16.14092"
     id="Fill-17"
     inkscape:connector-curvature="0"
     style="fill:#185b8b;fill-rule:evenodd;stroke:none;stroke-width:1;fill-opacity:0.94117647" /><path
     d="m 305.94272,97.014858 c 0,8.912482 -7.22844,16.140922 -16.14092,16.140922 -8.91248,0 -16.14093,-7.22844 -16.14093,-16.140922 0,-8.91248 7.22845,-16.140923 16.14093,-16.140923 8.91248,0 16.14092,7.228443 16.14092,16.140923"
     id="Fill-19"
     inkscape:connector-curvature="0"
     style="fill:#185b8b;fill-rule:evenodd;stroke:none;stroke-width:1;fill-opacity:0.94117647" /><path
     d="m 241.37903,97.014858 c 0,8.912482 -7.22845,16.140922 -16.14093,16.140922 -8.91247,0 -16.14092,-7.22844 -16.14092,-16.140922 0,-8.91248 7.22845,-16.140923 16.14092,-16.140923 8.91248,0 16.14093,7.228443 16.14093,16.140923"
     id="Fill-21"
     inkscape:connector-curvature="0"
     style="fill:#185b8b;fill-rule:evenodd;stroke:none;stroke-width:1;fill-opacity:0.94117647" /><path
     d="m 176.81534,97.014858 c 0,8.912482 -7.22845,16.140922 -16.14093,16.140922 -8.91248,0 -16.14092,-7.22844 -16.14092,-16.140922 0,-8.91248 7.22844,-16.140923 16.14092,-16.140923 8.91248,0 16.14093,7.228443 16.14093,16.140923"
     id="Fill-23"
     inkscape:connector-curvature="0"
     style="fill:#185b8b;fill-rule:evenodd;stroke:none;stroke-width:1;fill-opacity:0.94117647" /><path
     d="m 112.25164,97.014858 c 0,8.912482 -7.22844,16.140922 -16.14092,16.140922 -8.91248,0 -16.140923,-7.22844 -16.140923,-16.140922 0,-8.91248 7.228443,-16.140923 16.140923,-16.140923 8.91248,0 16.14092,7.228443 16.14092,16.140923"
     id="Fill-25"
     inkscape:connector-curvature="0"
     style="fill:#185b8b;fill-rule:evenodd;stroke:none;stroke-width:1;fill-opacity:0.94117647" /><path
     d="m 112.25164,161.57855 c 0,8.91248 -7.22844,16.14092 -16.14092,16.14092 -8.91248,0 -16.140923,-7.22844 -16.140923,-16.14092 0,-8.91248 7.228443,-16.14092 16.140923,-16.14092 8.91248,0 16.14092,7.22844 16.14092,16.14092"
     id="Fill-27"
     inkscape:connector-curvature="0"
     style="fill:#185b8b;fill-rule:evenodd;stroke:none;stroke-width:1;fill-opacity:0.94117647" /><path
     d="m 96.11072,210.00132 c -8.91517,0 -16.140923,7.22844 -16.140923,16.14092 l 0,64.5637 c 0,8.91248 7.225753,16.14092 16.140923,16.14092 8.91248,0 16.14092,-7.22844 16.14092,-16.14092 l 0,-64.5637 c 0,-8.91248 -7.22844,-16.14092 -16.14092,-16.14092"
     id="Fill-29"
     inkscape:connector-curvature="0"
     style="fill:#ffffff;fill-rule:evenodd;stroke:none;stroke-width:1" /><path
     d="m 225.2381,210.00132 c -8.91516,0 -16.14092,7.22844 -16.14092,16.14092 l 0,64.5637 c 0,8.91248 7.22576,16.14092 16.14092,16.14092 8.91248,0 16.14093,-7.22844 16.14093,-16.14092 l 0,-64.5637 c 0,-8.91248 -7.22845,-16.14092 -16.14093,-16.14092"
     id="Fill-31"
     inkscape:connector-curvature="0"
     style="fill:#ffffff;fill-rule:evenodd;stroke:none;stroke-width:1" /><path
     d="m 160.67441,145.43763 c -8.91517,0 -16.14092,7.22844 -16.14092,16.14092 l 0,129.12739 c 0,8.91248 7.22575,16.14092 16.14092,16.14092 8.91248,0 16.14093,-7.22844 16.14093,-16.14092 l 0,-129.12739 c 0,-8.91248 -7.22845,-16.14092 -16.14093,-16.14092"
     id="Fill-33"
     inkscape:connector-curvature="0"
     style="fill:#ffffff;fill-rule:evenodd;stroke:none;stroke-width:1" /><path
     d="m 289.8018,145.43763 c -8.91517,0 -16.14093,7.22844 -16.14093,16.14092 l 0,129.12739 c 0,8.91248 7.22576,16.14092 16.14093,16.14092 8.91248,0 16.14092,-7.22844 16.14092,-16.14092 l 0,-129.12739 c 0,-8.91248 -7.22844,-16.14092 -16.14092,-16.14092"
     id="Fill-35"
     inkscape:connector-curvature="0"
     style="fill:#ffffff;fill-rule:evenodd;stroke:none;stroke-width:1" /></svg>